<svg height="511pt" viewBox="0 -8 511.97852 511" width="511pt" xmlns="http://www.w3.org/2000/svg"><path d="m439.234375 333.722656-59.007813 132.914063c-2.941406 6.5625-7.058593 12.535156-12.152343 17.613281l-.578125.574219c-6.574219 6.59375-15.5 10.300781-24.8125 10.300781-9.308594 0-18.238282-3.707031-24.808594-10.300781l-2.8125-2.8125c-7.425781-7.4375-11.125-17.8125-10.085938-28.269531 1.039063-10.460938 6.710938-19.902344 15.457032-25.734376l3.226562-2.230468c7.070313-4.609375 12.765625-11.039063 16.488282-18.613282 6.777343-13.59375 6.777343-29.578124 0-43.171874-2.460938-4.976563-1.460938-10.972657 2.484374-14.882813.960938-.953125 2.078126-1.738281 3.304688-2.316406 3.207031-1.589844 6.140625-3.683594 8.679688-6.207031 7.464843-7.496094 11-18.050782 9.546874-28.53125l-4.722656-32.5zm0 0" fill="#2c2f38"/><path d="m8.679688 52.558594c-4.792969 0-8.679688-3.886719-8.679688-8.679688v-17.355468c0-14.378907 11.65625-26.035157 26.035156-26.035157h17.355469c4.792969 0 8.675781 3.886719 8.675781 8.679688s-3.882812 8.675781-8.675781 8.675781h-17.355469c-4.792968 0-8.679687 3.886719-8.679687 8.679688v17.355468c0 4.792969-3.886719 8.679688-8.675781 8.679688zm0 0" fill="#a5a5a4"/><path d="m43.390625 226.117188h-17.355469c-14.378906 0-26.035156-11.65625-26.035156-26.035157v-17.355469c0-4.792968 3.886719-8.679687 8.679688-8.679687 4.789062 0 8.675781 3.886719 8.675781 8.679687v17.355469c0 4.792969 3.886719 8.679688 8.679687 8.679688h17.355469c4.792969 0 8.675781 3.882812 8.675781 8.675781s-3.882812 8.679688-8.675781 8.679688zm0 0" fill="#a5a5a4"/><path d="m277.695312 52.558594c-4.792968 0-8.679687-3.886719-8.679687-8.679688v-17.355468c0-4.792969-3.882813-8.679688-8.675781-8.679688h-17.355469c-4.792969 0-8.679687-3.882812-8.679687-8.675781s3.886718-8.679688 8.679687-8.679688h17.355469c14.378906 0 26.03125 11.65625 26.03125 26.035157v17.355468c0 4.792969-3.882813 8.679688-8.675782 8.679688zm0 0" fill="#a5a5a4"/><path d="m260.339844 226.117188h-17.355469c-4.792969 0-8.679687-3.886719-8.679687-8.679688s3.886718-8.675781 8.679687-8.675781h17.355469c4.792968 0 8.675781-3.886719 8.675781-8.679688v-17.355469c0-4.792968 3.886719-8.679687 8.679687-8.679687 4.792969 0 8.675782 3.886719 8.675782 8.679687v17.355469c0 14.378907-11.652344 26.035157-26.03125 26.035157zm0 0" fill="#a5a5a4"/><g fill="#2c2f38"><path d="m43.390625 191.40625c-4.792969 0-8.679687-3.886719-8.679687-8.679688v-138.847656c0-4.792968 3.886718-8.679687 8.679687-8.679687s8.675781 3.886719 8.675781 8.679687v138.847656c0 4.792969-3.882812 8.679688-8.675781 8.679688zm0 0"/><path d="m78.101562 191.40625c-4.792968 0-8.679687-3.886719-8.679687-8.679688v-138.847656c0-4.792968 3.886719-8.679687 8.679687-8.679687 4.792969 0 8.679688 3.886719 8.679688 8.679687v138.847656c0 4.792969-3.886719 8.679688-8.679688 8.679688zm0 0"/><path d="m121.492188 191.40625c-4.792969 0-8.679688-3.886719-8.679688-8.679688v-138.847656c0-4.792968 3.886719-8.679687 8.679688-8.679687 4.792968 0 8.675781 3.886719 8.675781 8.679687v138.847656c0 4.792969-3.882813 8.679688-8.675781 8.679688zm0 0"/><path d="m147.527344 191.40625c-4.792969 0-8.679688-3.886719-8.679688-8.679688v-138.847656c0-4.792968 3.886719-8.679687 8.679688-8.679687 4.789062 0 8.675781 3.886719 8.675781 8.679687v138.847656c0 4.792969-3.886719 8.679688-8.675781 8.679688zm0 0"/><path d="m216.949219 191.40625c-4.792969 0-8.679688-3.886719-8.679688-8.679688v-138.847656c0-4.792968 3.886719-8.679687 8.679688-8.679687s8.679687 3.886719 8.679687 8.679687v138.847656c0 4.792969-3.886718 8.679688-8.679687 8.679688zm0 0"/><path d="m190.914062 191.40625c-4.792968 0-8.675781-3.886719-8.675781-8.679688v-138.847656c0-4.792968 3.882813-8.679687 8.675781-8.679687 4.792969 0 8.679688 3.886719 8.679688 8.679687v138.847656c0 4.792969-3.886719 8.679688-8.679688 8.679688zm0 0"/><path d="m242.984375 191.40625c-4.792969 0-8.679687-3.886719-8.679687-8.679688v-138.847656c0-4.792968 3.886718-8.679687 8.679687-8.679687s8.675781 3.886719 8.675781 8.679687v138.847656c0 4.792969-3.882812 8.679688-8.675781 8.679688zm0 0"/></g><path d="m277.695312 365.46875c0-71.613281-58.277343-129.667969-130.167968-129.667969s-130.171875 58.054688-130.171875 129.667969c0 71.609375 58.28125 129.664062 130.171875 129.664062s130.167968-58.054687 130.167968-129.664062zm0 0" fill="#71c285"/><path d="m109.4375 434.386719-45.402344-45.445313c-3.257812-3.253906-5.085937-7.671875-5.085937-12.273437 0-4.605469 1.828125-9.023438 5.085937-12.277344l6.136719-6.136719c6.777344-6.773437 17.761719-6.773437 24.539063 0l26.996093 27c3.390625 3.386719 8.882813 3.386719 12.273438 0l66.054687-66.050781c6.777344-6.773437 17.765625-6.773437 24.542969 0l6.132813 6.136719c3.257812 3.253906 5.085937 7.671875 5.085937 12.273437 0 4.605469-1.828125 9.023438-5.085937 12.277344l-84.453126 84.496094c-4.882812 4.882812-11.503906 7.628906-18.410156 7.628906s-13.527344-2.746094-18.410156-7.628906zm0 0" fill="#4c8056"/><path d="m318.175781 162.429688c-2.300781 0-4.507812-.914063-6.132812-2.542969l-24.550781-24.550781c-3.289063-3.40625-3.242188-8.816407.105468-12.164063s8.761719-3.394531 12.164063-.105469l24.550781 24.550782c2.480469 2.480468 3.222656 6.210937 1.878906 9.453124-1.339844 3.242188-4.503906 5.359376-8.015625 5.359376zm0 0" fill="#c03a2b"/><path d="m301.253906 110.792969c0 14.378906-11.652344 26.035156-26.03125 26.035156s-26.035156-11.65625-26.035156-26.035156c0-14.375 11.65625-26.03125 26.035156-26.03125s26.03125 11.65625 26.03125 26.03125zm0 0" fill="#c03a2b"/><path d="m453.292969 343.339844-111.460938-75.792969c-20.171875-13.722656-33.175781-35.726563-35.46875-60.015625s6.367188-48.335938 23.617188-65.589844l4.46875-4.46875c4.566406-4.566406 11.972656-4.566406 16.539062 0l154.15625 154.152344c4.851563 4.871094 7.320313 11.621094 6.753907 18.472656-.566407 6.847656-4.109376 13.101563-9.695313 17.109375l-22.15625 15.820313c-7.976563 5.683594-18.648437 5.808594-26.753906.3125zm0 0" fill="#5e5f62"/><path d="m354.988281 199.214844c-2.300781 0-4.507812-.914063-6.132812-2.542969l-6.136719-6.136719c-3.289062-3.402344-3.242188-8.816406.105469-12.164062 3.347656-3.347656 8.761719-3.394532 12.164062-.105469l6.136719 6.136719c2.480469 2.480468 3.222656 6.210937 1.878906 9.453125-1.339844 3.246093-4.503906 5.359375-8.015625 5.359375zm0 0" fill="#d1d4d1"/><path d="m422.496094 266.738281c-2.300782 0-4.507813-.914062-6.136719-2.542969l-42.957031-42.957031c-3.285156-3.402343-3.238282-8.816406.109375-12.164062 3.34375-3.347657 8.757812-3.394531 12.164062-.105469l42.953125 42.957031c2.484375 2.480469 3.226563 6.210938 1.882813 9.453125-1.34375 3.242188-4.507813 5.359375-8.015625 5.359375zm0 0" fill="#d1d4d1"/></svg>